<?xml version="1.0" standalone="no"?>
<!DOCTYPE svg PUBLIC "-//W3C//DTD SVG 20010904//EN"
 "http://www.w3.org/TR/2001/REC-SVG-20010904/DTD/svg10.dtd">
<svg version="1.0" xmlns="http://www.w3.org/2000/svg"
 width="500.000000pt" height="500.000000pt" viewBox="0 0 500.000000 500.000000"
 preserveAspectRatio="xMidYMid meet">
<metadata>
Created by potrace 1.14, written by Peter Selinger 2001-2017
</metadata>
<g transform="translate(0.000000,500.000000) scale(0.100000,-0.100000)"
fill="#000000" stroke="none">
<path d="M1493 3517 c-236 -177 -400 -413 -463 -667 -6 -25 -13 -53 -16 -62
-5 -15 6 -18 98 -20 l103 -3 -69 -35 c-75 -38 -170 -124 -201 -182 -29 -55
-11 -58 43 -6 62 61 130 101 227 134 69 24 95 27 190 27 171 -1 289 -45 410
-155 l50 -46 -280 -6 c-717 -18 -729 -23 -65 -27 1023 -6 2636 -1 2563 8 -25
3 -33 10 -38 33 -4 16 -23 55 -44 87 -100 155 -278 245 -486 245 -226 0 -416
-107 -505 -282 -31 -62 -32 -62 -68 -56 -20 3 -42 6 -48 6 -6 0 -9 12 -6 28 8
60 -16 114 -83 178 l-63 61 56 23 c111 44 417 197 448 223 21 18 43 55 64 106
18 45 41 86 54 94 44 29 138 40 334 38 107 0 201 -5 209 -10 11 -6 -23 -28
-133 -86 -222 -116 -534 -288 -530 -292 11 -11 395 162 696 313 l195 98 -125
19 c-95 15 -182 20 -360 21 -320 1 -353 -12 -381 -151 -19 -96 -59 -130 -298
-253 l-84 -44 -19 27 c-12 17 -29 27 -45 27 l-25 0 21 -34 c12 -18 21 -36 21
-40 0 -4 -30 -21 -67 -37 l-66 -31 -156 73 c-113 53 -165 72 -190 70 -19 -1
-38 4 -42 11 -6 10 -11 10 -20 1 -15 -15 -24 -9 96 -72 55 -29 165 -90 244
-134 157 -89 171 -105 171 -187 l0 -40 -200 0 c-228 0 -232 2 -151 70 62 51
70 74 39 107 -32 34 -208 138 -402 236 l-161 82 -165 5 c-129 5 -172 10 -197
23 -62 33 -69 78 -20 133 45 52 135 108 233 145 92 35 94 38 94 131 0 59 -24
138 -43 138 -27 0 -319 -193 -402 -266 -28 -24 -5 -13 80 39 137 84 287 167
302 167 16 0 25 -47 18 -95 -6 -39 -10 -43 -48 -55 -70 -20 -180 -76 -225
-115 -53 -46 -82 -101 -82 -158 0 -39 5 -49 39 -80 45 -41 114 -58 296 -75
l110 -11 220 -110 c121 -61 235 -123 253 -138 l33 -28 -45 -48 c-29 -30 -46
-56 -46 -72 0 -25 -1 -25 -92 -25 -51 0 -149 -3 -218 -6 l-125 -6 -25 42 c-42
71 -145 157 -246 206 -146 70 -340 112 -470 101 -76 -6 -75 -8 -39 101 75 226
250 456 470 619 21 16 25 22 13 23 -9 0 -61 -33 -115 -73z m2217 -803 c121
-38 238 -118 303 -208 l20 -29 -179 6 c-98 4 -321 10 -494 13 -173 4 -317 9
-320 11 -10 10 130 130 187 160 161 84 317 100 483 47z"/>
<path d="M2050 3314 c-84 -15 -267 -58 -280 -65 -9 -5 16 -6 60 -1 41 4 170 7
285 7 185 0 220 -3 294 -23 99 -26 165 -62 244 -132 31 -28 57 -46 58 -38 0 7
5 1 11 -14 5 -16 14 -28 19 -28 12 0 12 47 -1 55 -5 3 -7 12 -4 19 6 17 -96
119 -152 152 -90 53 -155 66 -339 69 -93 2 -181 1 -195 -1z"/>
<path d="M1909 3084 c46 -8 104 -23 129 -34 47 -21 58 -20 49 3 -6 17 -152 47
-217 46 -38 -1 -31 -3 39 -15z"/>
<path d="M2125 3039 c-10 -16 8 -31 80 -68 49 -25 71 -32 82 -25 9 5 16 14 17
19 2 19 -170 90 -179 74z"/>
<path d="M2769 3043 c-7 -38 -5 -74 3 -79 7 -5 9 2 6 20 -3 14 -1 26 3 26 12
0 11 27 -1 35 -5 3 -11 3 -11 -2z"/>
<path d="M2810 2968 c0 -18 5 -28 15 -28 19 0 19 11 0 36 -14 18 -14 18 -15
-8z"/>
<path d="M2340 2950 c0 -5 7 -10 16 -10 8 0 12 5 9 10 -3 6 -10 10 -16 10 -5
0 -9 -4 -9 -10z"/>
<path d="M2805 2275 c-14 -13 -25 -30 -25 -37 0 -26 31 -58 56 -58 29 0 33 26
7 46 -10 7 -14 16 -10 21 5 4 14 0 21 -10 18 -23 46 -22 46 3 0 24 -34 60 -55
60 -9 0 -27 -11 -40 -25z"/>
<path d="M2999 2283 c-56 -35 -63 -62 -67 -261 -4 -156 -2 -186 12 -207 18
-27 57 -33 74 -12 7 8 13 69 14 148 l3 134 31 -3 c21 -2 33 2 37 12 11 29 -58
48 -93 26 -12 -7 -16 -40 -21 -147 -6 -133 -6 -131 -5 49 1 180 2 188 23 210
19 18 33 22 73 20 43 -2 50 1 50 17 0 33 -86 42 -131 14z"/>
<path d="M1636 2269 c-55 -13 -97 -48 -126 -105 -35 -69 -36 -187 -1 -257 77
-157 313 -137 372 32 9 26 9 35 -1 41 -9 6 -8 13 5 33 14 22 15 34 6 84 -24
130 -131 202 -255 172z m120 -116 c13 -14 26 -36 29 -47 18 -90 22 -102 43
-112 l22 -11 -23 -44 c-32 -61 -77 -89 -141 -89 -88 0 -136 45 -155 146 -8 43
-8 44 10 28 20 -18 39 -11 39 14 0 37 23 96 45 118 35 35 97 33 131 -3z m84
-38 c0 -5 -5 -3 -10 5 -5 8 -10 20 -10 25 0 6 5 3 10 -5 5 -8 10 -19 10 -25z
m-303 -57 c-3 -7 -5 -2 -5 12 0 14 2 19 5 13 2 -7 2 -19 0 -25z m310 -5 c-3
-10 -5 -4 -5 12 0 17 2 24 5 18 2 -7 2 -21 0 -30z"/>
<path d="M2857 2164 c-4 -4 -8 -80 -9 -168 -1 -89 -4 -125 -5 -81 -4 82 -14
108 -39 98 -11 -4 -14 -27 -14 -98 0 -99 12 -125 57 -125 40 0 44 19 41 200
-3 163 -9 196 -31 174z"/>
<path d="M1923 2145 c-3 -10 -3 -88 0 -173 5 -133 9 -159 24 -169 22 -17 35
-16 59 1 16 13 20 31 25 143 5 134 10 158 37 168 36 14 47 -20 52 -161 4 -119
7 -137 24 -150 23 -16 35 -17 56 -4 12 7 16 39 20 144 5 113 8 138 24 155 34
37 98 22 118 -27 6 -15 13 -83 17 -152 5 -102 9 -125 21 -125 12 0 16 20 18
105 4 146 -3 183 -42 225 -30 31 -39 35 -85 35 -90 0 -110 -37 -113 -208 l-1
-117 -7 121 c-5 81 -13 132 -25 157 -29 61 -95 63 -137 4 -20 -28 -24 -47 -28
-157 l-5 -125 -5 160 c-4 142 -7 160 -23 163 -9 2 -20 -4 -24 -13z"/>
<path d="M2453 2148 c-17 -21 -4 -326 14 -344 20 -19 39 -18 63 6 18 18 20 33
20 130 0 146 17 180 86 180 14 0 36 -12 49 -26 24 -26 25 -33 25 -153 0 -127
7 -155 36 -144 17 6 20 217 4 275 -15 54 -61 88 -119 88 -93 0 -121 -45 -130
-210 l-6 -115 -5 159 c-5 156 -12 185 -37 154z"/>
<path d="M3164 2146 c-3 -7 21 -83 54 -167 51 -133 62 -154 81 -153 11 0 21
-2 21 -5 0 -21 -57 -84 -90 -101 -44 -22 -53 -50 -17 -50 31 0 80 32 110 72
31 40 147 332 147 369 0 34 -23 53 -54 45 -24 -6 -36 -28 -91 -175 -18 -49
-30 -69 -35 -60 -5 8 -25 59 -46 114 -20 55 -42 106 -47 113 -12 16 -26 15
-33 -2z m247 -87 c-11 -24 -20 -41 -20 -37 -1 12 31 89 35 85 3 -2 -4 -24 -15
-48z m-30 -76 c-12 -20 -14 -14 -5 12 4 9 9 14 11 11 3 -2 0 -13 -6 -23z m-30
-80 c-12 -20 -14 -14 -5 12 4 9 9 14 11 11 3 -2 0 -13 -6 -23z"/>
</g>
</svg>
